Coordinates
version=1
nRows=31
nColumns=33
inDegrees=yes

Units are S.I. units (second, meters, Newtons, ...)
Angles are in degrees.

endheader
time	ground_thorax_rot_x	ground_thorax_rot_y	ground_thorax_rot_z	ground_thorax_tx	ground_thorax_ty	ground_thorax_tz	clav_prot_r	clav_elev_r	scapula_abduction_r	scapula_elevation_r	scapula_upward_rot_r	scapula_winging_r	shoulder_elv_r	plane_of_elev_r	axial_rot_r	elbow_flexion_r	pro_sup_r	wrist_flex_r	wrist_dev_r	clav_prot_l	clav_elev_l	scapula_abduction_l	scapula_elevation_l	scapula_upward_rot_l	scapula_winging_l	shoulder_elv_l	plane_of_elev_l	axial_rot_l	elbow_flexion_l	pro_sup_l	wrist_flex_l	wrist_dev_l	
7.9600	37.356328	4.861616	15.239585	-232.250720	841.364733	-5.909668	12.986983	36.332322	32.411084	45.000000	-44.999999	636.365364	785.844692	30.445918	71.446392	1092.392673	29.057380	18.296277	8.252981	11.554486	-45.000000	-33.879936	45.000000	-45.000000	-2419.302039	-4605.307716	13.423522	-67.791010	1089.282801	31.886190	9.976884	-22.087107	
7.9700	37.380083	4.755483	15.025644	-232.499891	843.170091	-5.921707	12.979116	36.332229	32.518494	45.000000	-44.999999	636.230105	785.854707	30.526640	71.381089	1092.503047	29.306585	18.374857	8.153640	11.637240	-45.000000	-33.942713	45.000000	-45.000000	-2419.213768	-4605.252920	13.483493	-67.817588	1089.372138	31.970169	9.901748	-22.127571	
7.9800	37.408080	4.643973	14.807643	-232.685116	844.940251	-5.928996	12.969355	36.348079	32.642074	45.000000	-44.999998	636.078784	785.852148	30.614687	71.314963	1092.611265	29.568456	18.463204	8.047159	11.726882	-45.000000	-34.003814	45.000000	-45.000000	-2419.126856	-4605.205987	13.557208	-67.836667	1089.461000	32.062753	9.811206	-22.166706	
7.9900	37.431783	4.553694	14.613943	-232.729154	846.637315	-5.927491	12.971886	36.349448	32.747566	45.000000	-44.999997	635.966446	785.883199	30.683620	71.278663	1092.728385	29.875473	18.522528	7.960002	11.797343	-45.000000	-34.092455	45.000000	-45.000000	-2419.066544	-4605.145292	13.604036	-67.870969	1089.566349	32.187256	9.735342	-22.203029	
8.0000	37.456685	4.471507	14.433211	-232.627478	848.255613	-5.917314	12.976141	36.338722	32.856308	45.000000	-44.999995	635.862652	785.922311	30.749445	71.250792	1092.844685	30.216396	18.562275	7.878766	11.863558	-45.000000	-34.194325	45.000000	-45.000000	-2419.021139	-4605.085119	13.649969	-67.908108	1089.678397	32.340112	9.657429	-22.232960	
8.0100	37.476038	4.415853	14.285554	-232.366290	849.786243	-5.899222	12.986293	36.332742	32.946577	45.000000	-44.999990	635.785666	785.993018	30.802384	71.235982	1092.969576	30.591335	18.593009	7.808935	11.916077	-45.000000	-34.307687	45.000000	-45.000000	-2418.992789	-4605.006428	13.684669	-67.937520	1089.801417	32.524603	9.580976	-22.263163	
8.0200	37.495246	4.371835	14.152996	-231.952221	851.230431	-5.876072	12.983232	36.311274	33.031099	45.000000	-44.999983	635.710385	786.070402	30.862178	71.207048	1093.089920	30.991744	18.609167	7.737359	11.973044	-45.000000	-34.429398	45.000000	-44.999999	-2418.971719	-4604.929301	13.733934	-67.955624	1089.924107	32.740132	9.495604	-22.286564	
8.0300	37.507042	4.356409	14.054611	-231.400940	852.595743	-5.851720	12.977717	36.307724	33.088016	45.000000	-44.999969	635.659579	786.181560	30.914030	71.168258	1093.218215	31.415136	18.632519	7.674128	12.018888	-45.000000	-34.548862	45.000000	-44.999999	-2418.965080	-4604.826002	13.780412	-67.951601	1090.050915	32.987895	9.408253	-22.315612	
8.0400	37.519618	4.346935	13.965259	-230.728009	853.891032	-5.829751	12.952026	36.289386	33.136099	45.000000	-44.999945	635.608313	786.299164	30.978786	71.096452	1093.338891	31.862750	18.646025	7.603400	12.067698	-45.000000	-34.666643	45.000000	-44.999998	-2418.964517	-4604.723663	13.847823	-67.934131	1090.172833	33.271476	9.309613	-22.339377	
8.0500	37.528496	4.354970	13.903453	-229.948469	855.126489	-5.812423	12.929969	36.293162	33.165950	45.000000	-44.999901	635.580364	786.447918	31.035925	71.013677	1093.463812	32.345618	18.672795	7.546299	12.098459	-45.000000	-34.775749	45.000000	-44.999996	-2418.984014	-4604.596355	13.906881	-67.893670	1090.298339	33.596799	9.212323	-22.372998	
8.0600	37.544623	4.349105	13.835483	-229.077016	856.312498	-5.800275	12.895843	36.279812	33.213140	45.000000	-44.999823	635.538579	786.587789	31.108244	70.900838	1093.578126	32.870430	18.690950	7.475714	12.129863	-45.000000	-34.884312	45.000000	-44.999993	-2419.007875	-4604.484307	13.989900	-67.836104	1090.420358	33.968474	9.102052	-22.401855	
8.0700	37.562050	4.343184	13.786748	-228.127626	857.460209	-5.792319	12.882226	36.292116	33.275572	45.000000	-44.999684	635.505134	786.741214	31.170017	70.788336	1093.697970	33.451711	18.728287	7.421838	12.141060	-45.000000	-34.983195	45.000000	-44.999987	-2419.049591	-4604.356644	14.060805	-67.748242	1090.549134	34.392898	8.995841	-22.443985	
8.0800	37.588224	4.318775	13.725586	-227.113346	858.580874	-5.786697	12.866495	36.285692	33.376751	45.000000	-44.999433	635.446830	786.870927	31.237605	70.657450	1093.812450	34.096975	18.755521	7.346432	12.154408	-45.000000	-35.088321	45.000000	-44.999977	-2419.086615	-4604.252967	14.160057	-67.635058	1090.677892	34.872841	8.875479	-22.479849	
8.0900	37.615299	4.297518	13.675229	-226.045520	859.686539	-5.781436	12.869502	36.296917	33.508861	45.000000	-44.998985	635.382139	786.994104	31.284157	70.528897	1093.937260	34.822570	18.799303	7.282391	12.160112	-45.000000	-35.197164	45.000000	-44.999959	-2419.130800	-4604.142657	14.257610	-67.485410	1090.815413	35.413024	8.758379	-22.527088	
8.1000	37.643967	4.272629	13.611567	-224.933209	860.790109	-5.775009	12.865095	36.289556	33.656293	45.000000	-44.998182	635.301691	787.101186	31.336120	70.378683	1094.062100	35.630051	18.831281	7.191655	12.175442	-45.000000	-35.327776	45.000000	-44.999927	-2419.170733	-4604.050407	14.379928	-67.309689	1090.949309	36.009502	8.631441	-22.568578	
8.1100	37.669788	4.258110	13.557169	-223.782299	861.905956	-5.766531	12.865969	36.297029	33.818750	45.000000	-44.996744	635.218234	787.210375	31.373433	70.219910	1094.202290	36.530009	18.878924	7.112230	12.198744	-45.000000	-35.468447	45.000000	-44.999870	-2419.211090	-4603.949427	14.502095	-67.106165	1091.092141	36.657803	8.507871	-22.620021	
8.1200	37.695431	4.242634	13.490896	-222.595403	863.049678	-5.755659	12.857463	36.293454	33.989039	45.000000	-44.994167	635.125485	787.319871	31.416912	70.036766	1094.350737	37.520476	18.917041	7.009393	12.231921	-45.000000	-35.623245	45.000000	-44.999767	-2419.244555	-4603.854850	14.645695	-66.880414	1091.238019	37.346148	8.374328	-22.666428	
8.1300	37.719123	4.232339	13.429607	-221.371812	864.237911	-5.742423	12.849252	36.298388	34.171212	45.000000	-44.989554	635.027150	787.440139	31.459996	69.837583	1094.512543	38.605944	18.965236	6.914803	12.273336	-45.000000	-35.786691	45.000000	-44.999583	-2419.275374	-4603.753189	14.788855	-66.630044	1091.391792	38.064852	8.242219	-22.719703	
8.1400	37.745670	4.196966	13.350671	-220.108193	865.487413	-5.727152	12.860060	36.303427	34.378249	45.000000	-44.981281	634.912448	787.562201	31.532372	69.632906	1094.678788	39.794373	19.005169	6.804787	12.314970	-45.000000	-35.939637	45.000000	-44.999253	-2419.302105	-4603.656993	14.953148	-66.346690	1091.539669	38.806146	8.100822	-22.765100	
8.1500	37.775012	4.142569	13.265830	-218.799146	866.814243	-5.710538	12.890179	36.320833	34.623371	45.000000	-44.966488	634.776067	787.683432	31.621393	69.431015	1094.856124	41.092004	19.048900	6.699116	12.357139	-45.000000	-36.079664	45.000000	-44.998661	-2419.319924	-4603.560820	15.132936	-66.025423	1091.687985	39.562364	7.954908	-22.808551	
8.1600	37.806907	4.065321	13.161138	-217.438278	868.232333	-5.693758	12.941768	36.349045	34.901158	45.000000	-44.939917	634.619158	787.800478	31.731386	69.236828	1095.040691	42.497330	19.082744	6.576595	12.389747	-45.000000	-36.204774	45.000000	-44.997602	-2419.336901	-4603.461799	15.337300	-65.653026	1091.828416	40.323912	7.799913	-22.842899	
8.1700	37.839352	3.986805	13.044615	-216.018678	869.752579	-5.678500	13.003731	36.390290	35.193499	45.000000	-44.892522	634.444431	787.915152	31.851838	69.045269	1095.231489	44.000281	19.111571	6.446975	12.416964	-45.000000	-36.339571	45.000000	-44.995704	-2419.358011	-4603.359230	15.554721	-65.226730	1091.960135	41.078863	7.644983	-22.875047	
8.1800	37.873131	3.904470	12.910561	-214.533573	871.381666	-5.666794	13.095728	36.453329	35.491688	45.000000	-44.807063	634.252560	788.026463	31.985823	68.868636	1095.425702	45.601664	19.131230	6.303103	12.432962	-45.000000	-36.482446	45.000000	-44.992308	-2419.392156	-4603.248593	15.784342	-64.728395	1092.078943	41.820360	7.492447	-22.906186	
8.1900	37.908727	3.834222	12.766754	-212.976325	873.121663	-5.660673	13.191267	36.531660	35.781826	45.000000	-44.657605	634.048315	788.136984	32.110645	68.695341	1095.627217	47.286183	19.144805	6.149024	12.446379	-45.000000	-36.651871	45.000000	-44.986213	-2419.434637	-4603.131306	16.022323	-64.156734	1092.193285	42.535652	7.346438	-22.941248	
8.2000	37.948764	3.771668	12.608222	-211.340750	874.969415	-5.661794	13.279360	36.629184	36.057563	45.000000	-44.417908	633.839030	788.249528	32.216904	68.530975	1095.835648	49.031486	19.155252	5.987524	12.457048	-45.000000	-36.843245	45.000000	-44.975325	-2419.490697	-4603.003252	16.268860	-63.501873	1092.304115	43.211356	7.208373	-22.980876	
8.2100	37.995908	3.713551	12.434284	-209.621150	876.916460	-5.671169	13.333687	36.734852	36.308762	45.000000	-44.072085	633.632887	788.368034	32.303931	68.365815	1096.044962	50.801411	19.166199	5.827239	12.474558	-45.000000	-37.057728	45.000000	-44.955739	-2419.555742	-4602.872854	16.527838	-62.775026	1092.406562	43.831465	7.078941	-23.021063	
8.2200	38.052886	3.650034	12.246944	-207.812604	878.948840	-5.689089	13.382898	36.854209	36.559604	45.000000	-43.631717	633.424331	788.485014	32.370024	68.210061	1096.253981	52.586170	19.176532	5.668629	12.490937	-45.000000	-37.277414	45.000000	-44.920888	-2419.625562	-4602.737954	16.802168	-61.971684	1092.503881	44.391137	6.959267	-23.063988	
8.2300	38.118136	3.577778	12.047626	-205.910959	881.047449	-5.715206	13.388554	36.974912	36.803764	45.000000	-43.099445	633.224389	788.607878	32.415504	68.040645	1096.462231	54.351909	19.190760	5.517301	12.512281	-45.000000	-37.500418	45.000000	-44.857809	-2419.692855	-4602.598090	17.093333	-61.118210	1092.594047	44.876941	6.846826	-23.103741	
8.2400	38.188689	3.507703	11.844147	-203.912808	883.188563	-5.748682	13.388180	37.107186	37.045733	45.000000	-42.508305	633.028291	788.731339	32.446827	67.869744	1096.664032	56.084988	19.201575	5.367269	12.523833	-45.000000	-37.736086	45.000000	-44.746631	-2419.762556	-4602.448861	17.383026	-60.219698	1092.675680	45.278868	6.749614	-23.147705	
8.2500	38.264441	3.424543	11.623976	-201.815345	885.344673	-5.788299	13.366230	37.242973	37.288886	45.000000	-41.867601	632.836923	788.853999	32.478059	67.680369	1096.857009	57.767575	19.212535	5.224622	12.534806	-45.000000	-37.989563	45.000000	-44.542412	-2419.827467	-4602.299037	17.668704	-59.302013	1092.741278	45.585674	6.668758	-23.191446	
8.2600	38.343152	3.333155	11.391079	-199.616152	887.485561	-5.832459	13.369646	37.392508	37.542592	45.000000	-41.196634	632.643657	788.965381	32.510236	67.490344	1097.037144	59.412912	19.214741	5.080344	12.525903	-45.000000	-38.268249	45.000000	-44.202150	-2419.891656	-4602.147429	17.927093	-58.374770	1092.790425	45.792752	6.613236	-23.243754	
